<?xml version="1.0" encoding="UTF-8" standalone="no"?>
<!DOCTYPE svg PUBLIC "-//W3C//DTD SVG 1.1//EN" "http://www.w3.org/Graphics/SVG/1.1/DTD/svg11.dtd">
<!-- Created with Vectornator (http://vectornator.io/) -->
<svg height="100%" stroke-miterlimit="10" style="fill-rule:nonzero;clip-rule:evenodd;stroke-linecap:round;stroke-linejoin:round;" version="1.1" viewBox="0 0 844 390" width="100%" xml:space="preserve" xmlns="http://www.w3.org/2000/svg" xmlns:vectornator="http://vectornator.io" xmlns:xlink="http://www.w3.org/1999/xlink">
<defs/>
<g id="Layer-1" vectornator:layerName="Layer 1">
<path d="M452.675 238.653C452.675 212.223 494.688 159.016 529.751 185.937C555.631 205.808 580.171 156.071 613.17 156.126C669.746 156.218 679.237 202.789 679.237 238.653C679.237 257.207 669.503 264.985 641.344 264.387C608.19 263.682 631.101 256.579 575.213 259.285C547.046 260.649 495.021 262.536 495.021 262.536C495.021 262.536 452.675 259.91 452.675 238.653Z" fill="#c2c2c2" fill-rule="nonzero" opacity="1" stroke="none"/>
<path d="M273.826 180.139C273.826 147.816 304.5 82.75 330.1 115.672C348.996 139.971 366.912 79.1489 391.006 79.2152C432.313 79.3288 439.243 136.28 439.243 180.139C439.243 202.828 432.136 212.34 411.576 211.608C387.37 210.746 404.098 202.06 363.293 205.369C342.727 207.036 304.743 209.345 304.743 209.345C304.743 209.345 273.826 206.133 273.826 180.139Z" fill="#ededed" fill-rule="nonzero" opacity="1" stroke="none" vectornator:blendMode="multiply"/>
<path d="M645.475 173.718C645.475 149.033 601.737 99.3407 565.235 124.483C538.293 143.042 512.746 96.5905 478.392 96.6411C419.493 96.7279 409.613 140.222 409.613 173.718C409.613 191.046 419.746 198.31 449.062 197.751C483.576 197.093 459.725 190.46 517.907 192.987C547.231 194.26 601.391 196.023 601.391 196.023C601.391 196.023 645.475 193.57 645.475 173.718Z" fill="#ededed" fill-rule="nonzero" opacity="1" stroke="none"/>
<path d="M168.782 236.361C168.782 208.574 211.979 152.637 248.03 180.94C274.639 201.83 299.87 149.541 333.799 149.598C391.969 149.696 401.727 198.656 401.727 236.361C401.727 255.867 391.719 264.044 362.766 263.415C328.679 262.674 352.235 255.207 294.772 258.052C265.812 259.485 212.321 261.47 212.321 261.47C212.321 261.47 168.782 258.708 168.782 236.361Z" fill="#cccccc" fill-rule="nonzero" opacity="1" stroke="none"/>
<path d="M606.125 289.698C606.125 264.117 539.763 212.62 484.38 238.676C443.501 257.908 404.74 209.77 352.616 209.822C263.251 209.912 248.26 254.986 248.26 289.698C248.26 307.656 263.635 315.184 308.114 314.605C360.481 313.923 324.293 307.048 412.571 309.667C457.062 310.987 539.237 312.814 539.237 312.814C539.237 312.814 606.125 310.272 606.125 289.698Z" fill="#cccccc" fill-rule="nonzero" opacity="1" stroke="none"/>
<path d="M490.381 152.303C485.491 124.967 440.037 91.0841 413.145 151.305C392.803 196.86 349.054 223.653 353.944 250.989C358.834 278.325 428.236 271.603 470.327 249.172C512.417 226.74 495.272 179.639 490.381 152.303Z" fill="#aeaeae" fill-rule="nonzero" opacity="1" stroke="none"/>
</g>
</svg>
