<?xml version="1.0" encoding="UTF-8" standalone="no"?>
<!DOCTYPE svg PUBLIC "-//W3C//DTD SVG 1.1//EN" "http://www.w3.org/Graphics/SVG/1.1/DTD/svg11.dtd">
<!-- Created with Vectornator (http://vectornator.io/) -->
<svg height="100%" stroke-miterlimit="10" style="fill-rule:nonzero;clip-rule:evenodd;stroke-linecap:round;stroke-linejoin:round;" version="1.1" viewBox="0 0 844 450" width="100%" xml:space="preserve" xmlns="http://www.w3.org/2000/svg" xmlns:vectornator="http://vectornator.io" xmlns:xlink="http://www.w3.org/1999/xlink">
<defs/>
<g id="Layer-1" vectornator:layerName="Layer 1">
<path d="M111.08 260.026L119.49 264.432C123.994 266.791 126.293 273.866 124.624 280.235L101.736 367.572C100.067 373.94 95.0627 377.19 90.5584 374.831L82.1482 370.425C77.6439 368.066 75.3453 360.991 77.0142 354.622L99.9021 267.285C101.571 260.917 106.575 257.667 111.08 260.026Z" fill="#599cff" fill-rule="nonzero" opacity="1" stroke="none"/>
<path d="M174.097 278.582L182.507 282.842C187.011 285.123 189.31 291.964 187.641 298.121L164.753 382.567C163.084 388.725 158.08 391.867 153.575 389.585L145.165 385.326C140.661 383.045 138.362 376.204 140.031 370.046L162.919 285.601C164.588 279.443 169.592 276.301 174.097 278.582Z" fill="#4d78b8" fill-rule="nonzero" opacity="1" stroke="none"/>
<path d="M248.301 287.564L254.893 290.56C258.424 292.165 260.226 296.977 258.918 301.309L240.978 360.713C239.669 365.045 235.747 367.255 232.216 365.65L225.624 362.654C222.094 361.049 220.292 356.237 221.6 351.905L239.54 292.501C240.848 288.169 244.771 285.959 248.301 287.564Z" fill="#599cff" fill-rule="nonzero" opacity="1" stroke="none"/>
<path d="M326.099 245.353L334.509 251.194C339.014 254.322 341.312 263.703 339.643 272.146L316.755 387.943C315.087 396.387 310.082 400.696 305.578 397.567L297.168 391.726C292.663 388.598 290.365 379.217 292.034 370.774L314.922 254.977C316.59 246.533 321.595 242.225 326.099 245.353Z" fill="#599cff" fill-rule="nonzero" opacity="1" stroke="none"/>
<path d="M406.868 246.397L415.278 250.802C419.782 253.161 422.081 260.237 420.412 266.605L397.524 353.942C395.855 360.31 390.851 363.56 386.346 361.201L377.936 356.795C373.432 354.436 371.133 347.361 372.802 340.993L395.69 253.655C397.359 247.287 402.363 244.037 406.868 246.397Z" fill="#4d78b8" fill-rule="nonzero" opacity="1" stroke="none"/>
<path d="M612.83 256.15L621.24 260.555C625.745 262.914 628.043 269.99 626.374 276.358L603.486 363.695C601.818 370.064 596.813 373.313 592.309 370.954L583.899 366.549C579.394 364.189 577.096 357.114 578.765 350.746L601.652 263.408C603.321 257.04 608.326 253.79 612.83 256.15Z" fill="#4d78b8" fill-rule="nonzero" opacity="1" stroke="none"/>
<path d="M479.644 255.585L488.054 259.991C492.559 262.35 494.857 269.425 493.188 275.794L470.301 363.131C468.632 369.499 463.627 372.749 459.123 370.39L450.713 365.984C446.208 363.625 443.91 356.55 445.579 350.181L468.467 262.844C470.136 256.476 475.14 253.226 479.644 255.585Z" fill="#599cff" fill-rule="nonzero" opacity="1" stroke="none"/>
<path d="M685.607 265.338L694.017 269.744C698.521 272.103 700.82 279.178 699.151 285.547L676.263 372.884C674.594 379.252 669.59 382.502 665.086 380.143L656.675 375.737C652.171 373.378 649.872 366.303 651.541 359.934L674.429 272.597C676.098 266.229 681.103 262.979 685.607 265.338Z" fill="#599cff" fill-rule="nonzero" opacity="1" stroke="none"/>
<path d="M551.804 244.003L560.214 249.555C564.719 252.529 567.017 261.446 565.348 269.472L542.461 379.546C540.792 387.572 535.787 391.668 531.283 388.694L522.873 383.142C518.368 380.168 516.07 371.251 517.739 363.225L540.627 253.151C542.295 245.125 547.3 241.029 551.804 244.003Z" fill="#4d78b8" fill-rule="nonzero" opacity="1" stroke="none"/>
<path d="M757.767 253.756L766.177 259.308C770.681 262.282 772.98 271.199 771.311 279.225L748.423 389.299C746.754 397.325 741.75 401.421 737.245 398.447L728.835 392.895C724.331 389.921 722.032 381.004 723.701 372.978L746.589 262.904C748.258 254.878 753.262 250.782 757.767 253.756Z" fill="#4d78b8" fill-rule="nonzero" opacity="1" stroke="none"/>
<path d="M207.159 221.885C207.159 177 311.433 86.6447 398.456 132.362C462.688 166.106 523.593 81.644 605.494 81.736C745.912 81.8938 769.467 160.98 769.467 221.885C769.467 253.393 745.309 266.602 675.419 265.586C593.136 264.389 649.998 252.327 511.288 256.922C441.38 259.238 312.259 262.443 312.259 262.443C312.259 262.443 207.159 257.983 207.159 221.885Z" fill="#ededed" fill-rule="nonzero" opacity="1" stroke="none"/>
<path d="M556.034 181.811C556.034 136.926 482.511 46.5699 421.152 92.2873C375.862 126.032 332.918 41.5692 275.169 41.6613C176.16 41.8191 159.552 120.905 159.552 181.811C159.552 213.318 176.586 226.528 225.865 225.511C283.883 224.314 243.789 212.252 341.594 216.847C390.886 219.163 481.929 222.369 481.929 222.369C481.929 222.369 556.034 217.908 556.034 181.811Z" fill="#ededed" fill-rule="nonzero" opacity="1" stroke="none" vectornator:blendMode="multiply"/>
<path d="M807.81 259.886C807.81 221.298 704.273 143.62 617.864 182.923C554.085 211.933 493.611 139.321 412.287 139.4C272.86 139.536 249.472 207.526 249.472 259.886C249.472 286.973 273.459 298.328 342.856 297.454C424.559 296.425 368.097 286.056 505.828 290.006C575.243 291.997 703.452 294.753 703.452 294.753C703.452 294.753 807.81 290.918 807.81 259.886Z" fill="#cccccc" fill-rule="nonzero" opacity="1" stroke="none"/>
<path d="M36.9787 143.156C48.6996 105.195 157.648 58.1433 222.104 141.771C270.862 205.031 375.723 242.238 364.002 280.199C352.281 318.16 185.932 308.825 85.0471 277.675C-15.8379 246.525 25.2577 181.117 36.9787 143.156Z" fill="#aeaeae" fill-rule="nonzero" opacity="1" stroke="none"/>
</g>
</svg>
