<?xml version="1.0" encoding="UTF-8" standalone="no"?>
<!DOCTYPE svg PUBLIC "-//W3C//DTD SVG 1.1//EN" "http://www.w3.org/Graphics/SVG/1.1/DTD/svg11.dtd">
<!-- Created with Vectornator (http://vectornator.io/) -->
<svg height="100%" stroke-miterlimit="10" style="fill-rule:nonzero;clip-rule:evenodd;stroke-linecap:round;stroke-linejoin:round;" version="1.1" viewBox="0 0 844 390" width="100%" xml:space="preserve" xmlns="http://www.w3.org/2000/svg" xmlns:vectornator="http://vectornator.io" xmlns:xlink="http://www.w3.org/1999/xlink">
<defs/>
<g id="Layer-1" vectornator:layerName="Layer 1">
<path d="M540.564 69.4347L542.375 71.0733C547.611 75.8092 547.986 83.8605 543.214 89.0563L497.298 139.053C492.526 144.249 484.414 144.622 479.179 139.886L477.368 138.247C472.133 133.511 471.757 125.46 476.529 120.264L522.445 70.2674C527.217 65.0716 535.329 64.6988 540.564 69.4347Z" fill="#ffed49" fill-rule="nonzero" opacity="1" stroke="#beb02c" stroke-linecap="butt" stroke-linejoin="miter" stroke-width="6.27983"/>
<path d="M301.183 66.9315L299.372 68.5701C294.137 73.306 293.761 81.3573 298.533 86.5531L344.449 136.55C349.221 141.746 357.333 142.118 362.568 137.382L364.379 135.744C369.615 131.008 369.99 122.957 365.218 117.761L319.302 67.7642C314.53 62.5684 306.418 62.1956 301.183 66.9315Z" fill="#ffed49" fill-rule="nonzero" opacity="1" stroke="#beb02c" stroke-linecap="butt" stroke-linejoin="miter" stroke-width="6.27983"/>
<path d="M542.587 327.719L544.398 326.08C549.633 321.344 550.009 313.293 545.237 308.097L499.321 258.101C494.549 252.905 486.437 252.532 481.201 257.268L479.39 258.906C474.155 263.642 473.779 271.694 478.551 276.89L524.467 326.886C529.239 332.082 537.351 332.455 542.587 327.719Z" fill="#ffed49" fill-rule="nonzero" opacity="1" stroke="#beb02c" stroke-linecap="butt" stroke-linejoin="miter" stroke-width="6.28"/>
<path d="M300.636 330.222L298.825 328.583C293.59 323.848 293.214 315.796 297.986 310.6L343.902 260.604C348.674 255.408 356.786 255.035 362.021 259.771L363.833 261.41C369.068 266.146 369.443 274.197 364.672 279.393L318.755 329.389C313.984 334.585 305.871 334.958 300.636 330.222Z" fill="#ffed49" fill-rule="nonzero" opacity="1" stroke="#beb02c" stroke-linecap="butt" stroke-linejoin="miter" stroke-width="6.28"/>
<path d="M591.332 196.381L591.386 198.847C591.542 205.974 586.003 211.736 579.016 211.715L511.778 211.521C504.79 211.501 498.999 205.707 498.843 198.579L498.789 196.113C498.633 188.986 504.171 183.225 511.158 183.245L578.397 183.439C585.384 183.46 591.175 189.254 591.332 196.381Z" fill="#ffed49" fill-rule="nonzero" opacity="1" stroke="#beb02c" stroke-linecap="butt" stroke-linejoin="miter" stroke-width="6.27983"/>
<path d="M418.78 18.9961L421.203 18.9652C428.206 18.8757 433.812 24.5686 433.724 31.6804L432.879 100.114C432.791 107.226 427.042 113.064 420.039 113.153L417.616 113.184C410.612 113.274 405.006 107.581 405.094 100.469L405.94 32.0353C406.028 24.9234 411.776 19.0856 418.78 18.9961Z" fill="#ffed49" fill-rule="nonzero" opacity="1" stroke="#beb02c" stroke-linecap="butt" stroke-linejoin="miter" stroke-width="6.27983"/>
<path d="M416.956 276.539L419.379 276.508C426.383 276.419 431.989 282.112 431.901 289.224L431.056 357.657C430.968 364.769 425.219 370.607 418.216 370.697L415.793 370.728C408.789 370.817 403.183 365.124 403.271 358.012L404.116 289.578C404.204 282.467 409.953 276.629 416.956 276.539Z" fill="#ffed49" fill-rule="nonzero" opacity="1" stroke="#beb02c" stroke-linecap="butt" stroke-linejoin="miter" stroke-width="6.27983"/>
<path d="M337.569 196.547L337.623 199.013C337.779 206.141 332.241 211.902 325.253 211.882L258.015 211.687C251.027 211.667 245.236 205.873 245.08 198.746L245.026 196.28C244.87 189.153 250.408 183.391 257.396 183.411L324.634 183.606C331.622 183.626 337.413 189.42 337.569 196.547Z" fill="#ffed49" fill-rule="nonzero" opacity="1" stroke="#beb02c" stroke-linecap="butt" stroke-linejoin="miter" stroke-width="6.27983"/>
<path d="M316.806 196.15C316.806 140.03 361.503 94.5354 416.638 94.5354C471.774 94.5354 516.471 140.03 516.471 196.15C516.471 252.271 471.774 297.765 416.638 297.765C361.503 297.765 316.806 252.271 316.806 196.15Z" fill="#ffed49" fill-rule="nonzero" opacity="1" stroke="#beb02c" stroke-linecap="butt" stroke-linejoin="miter" stroke-width="6.27983"/>
</g>
</svg>
