<?xml version="1.0" encoding="utf-8"?>
<!-- Generator: Adobe Illustrator 26.0.2, SVG Export Plug-In . SVG Version: 6.00 Build 0)  -->
<svg version="1.1" xmlns="http://www.w3.org/2000/svg" xmlns:xlink="http://www.w3.org/1999/xlink" x="0px" y="0px"
	 viewBox="0 0 1080 3172" style="enable-background:new 0 0 1080 3172;" xml:space="preserve">
<style type="text/css">
	.st0{fill:#F9F9F9;stroke:#000000;stroke-width:2;stroke-miterlimit:10;}
	.st1{fill:#9B9B9B;stroke:#000000;stroke-width:2;stroke-miterlimit:10;}
	.st2{fill:#F9F9F9;stroke:#000000;stroke-miterlimit:10;}
	.st3{fill:#F2F2F2;stroke:#000000;stroke-width:2;stroke-miterlimit:10;}
	.st4{fill:#005288;}
	.st5{fill:#A7A9AC;}
	.st6{fill:#ED1C24;}
	.st7{fill:#848484;stroke:#000000;stroke-miterlimit:10;}
</style>
<g id="Слой_2">
	<path class="st0" d="M645.85,587.38c18.57,0,33.67,13.58,33.67,30.28v85.74c0,16.7-15.1,30.28-33.67,30.28H404.33
		c-18.57,0-33.67-13.58-33.67-30.28v-85.74c0-16.7,15.1-30.28,33.67-30.28"/>
	<path class="st1" d="M448.38,3113.67c-16.39,0-29.69,22.92-29.91,51.33h59.83C478.07,3136.59,464.77,3113.67,448.38,3113.67z"/>
	<path class="st1" d="M528.38,3113.67c-16.39,0-29.69,22.92-29.91,51.33h59.83C558.07,3136.59,544.77,3113.67,528.38,3113.67z"/>
	<path class="st1" d="M602.38,3113.67c-16.39,0-29.69,22.92-29.91,51.33h59.83C632.07,3136.59,618.77,3113.67,602.38,3113.67z"/>
</g>
<g id="Слой_1">
	<path class="st0" d="M679.52,309.66C679.38,140.25,610.3,3,525.09,3S370.8,140.25,370.66,309.66"/>
	<polyline class="st0" points="679.52,309.66 679.52,618.79 370.66,618.79 370.66,309.66 	"/>
	<rect x="400.39" y="731.2" class="st2" width="249.4" height="2403.65"/>
</g>
<g id="Right_Booster">
	<path class="st1" d="M852.88,3116.92c-13.98,0-25.33,19.55-25.51,43.78h51.03C878.2,3136.47,866.86,3116.92,852.88,3116.92z"/>
	<path class="st1" d="M772.7,3116.67c-16.39,0-29.69,22.92-29.91,51.33h59.83C802.4,3139.59,789.09,3116.67,772.7,3116.67z"/>
	<path class="st1" d="M692.28,3116.92c-13.98,0-25.33,19.55-25.51,43.78h51.03C717.61,3136.47,706.26,3116.92,692.28,3116.92z"/>
	<path class="st3" d="M772.22,1297.4c-64.59,0-116.96,154.88-117.06,346.04h234.12C889.18,1452.28,836.81,1297.4,772.22,1297.4z"/>
	<rect x="655.16" y="1643.44" class="st3" width="234.12" height="1492.24"/>
	<path class="st4" d="M654.79,1673.14c26.86,1.23,44.69-17.19,43.79-30.35c-0.84-12.38-18.71-26.99-42.97-25.22"/>
	<path class="st4" d="M889.14,1672.8c-26.86,1.23-44.69-17.19-43.79-30.35c0.84-12.38,18.71-26.99,42.97-25.22"/>
</g>
<g id="Left_Booster">
	<path class="st1" d="M358.52,3116.92c-13.98,0-25.33,19.55-25.51,43.78h51.03C383.84,3136.47,372.49,3116.92,358.52,3116.92z"/>
	<path class="st1" d="M278.34,3116.67c-16.39,0-29.69,22.92-29.91,51.33h59.83C308.04,3139.59,294.73,3116.67,278.34,3116.67z"/>
	<path class="st1" d="M197.92,3116.92c-13.98,0-25.33,19.55-25.51,43.78h51.03C223.24,3136.47,211.9,3116.92,197.92,3116.92z"/>
	<path class="st3" d="M278.25,1297.4c-64.69,0-117.15,154.81-117.25,345.89h234.51C395.4,1452.21,342.95,1297.4,278.25,1297.4z"/>
	<path class="st3" d="M395.31,3135.19H161.19V1642.94c12.9,0,25.79,0,38.69,0c65.14,0,130.29,0,195.43,0
		C395.31,2140.36,395.31,2637.77,395.31,3135.19z"/>
	<path class="st4" d="M161.97,1675.02c26.86,1.23,44.69-17.19,43.79-30.35c-0.84-12.38-18.71-26.99-42.97-25.22"/>
	<path class="st4" d="M395.03,1670.29c-26.86,1.23-44.69-17.19-43.79-30.35c0.84-12.38,18.71-26.99,42.97-25.22"/>
</g>
<g id="Слой_5">
	<g>
		<path class="st4" d="M539.57,2460.94h-49.86l-1.85,1.38v44.39h13.8v-16.65l1.32-1.18h36.59c9.24,0,13.57-2.49,13.57-8.87v-10.19
			C553.14,2463.43,548.81,2460.94,539.57,2460.94 M539.57,2477.35c0,3.01-1.99,3.63-6.32,3.63h-30.12l-1.47-1.43v-9.51l1.32-1.21
			h30.27c4.33,0,6.32,0.62,6.32,3.64V2477.35z"/>
		<polyline class="st4" points="511.74,2541.74 523.62,2559.15 522.96,2560.84 496.7,2560.84 489.99,2569.09 529.09,2569.09 
			531.8,2570.75 537.87,2579.13 553.66,2579.13 519.04,2532.77 		"/>
		<polyline class="st4" points="503.32,2729.95 503.32,2717.63 504.74,2716.4 531.17,2716.4 531.17,2708.55 489.29,2708.56 
			489.29,2738.96 551.06,2738.96 551.06,2731.16 504.81,2731.16 		"/>
		<rect x="489.29" y="2693.18" class="st4" width="62.43" height="8.63"/>
		<path class="st4" d="M503.12,2617.83h50.29c-0.78-6.4-4.74-8.18-14.81-8.18h-36.02c-11.36,0-14.98,2.22-14.98,10.82v24.14
			c0,8.61,3.62,10.83,14.98,10.83h36.02c10.21,0,14.13-1.92,14.39-8.56h-49.87l-1.48-1.39v-26.73"/>
		<path class="st4" d="M539.04,2393.97h-36.59l-1.08-1.19v-7.83l1.07-0.83h49.32l0.67-1.65c-1.68-4.33-6.03-6.34-14.11-6.34h-34.26
			c-11.35,0-14.98,2.22-14.98,10.82v5.06c0,8.61,3.63,10.83,14.98,10.83h36.51l1.15,1.01v8.19l-0.94,1.28l-41.76,0v-0.04h-10.94
			c0,0-1.25,0.63-1.2,0.92c0.93,6.02,5.03,7.72,14.84,7.72h37.31c11.35,0,15.09-2.22,15.09-10.83v-6.3
			C554.12,2396.18,550.39,2393.97,539.04,2393.97"/>
		<path class="st4" d="M508.44,2802.96c2.5-5.12,5.04-9.82,7.54-14.15l-16.62-22.83l-2.12,1.12v20.55"/>
		<path class="st5" d="M543.13,2784.6c-69.07,68.78-72.55,171.96-72.55,171.96c5.6-122.93,57.89-179.49,70.09-192.13l2.46,1.57
			V2784.6"/>
	</g>
	<path class="st6" d="M370.29,365.79c21.41-12.17,61.43-31.46,118.36-40.26c92.25-14.26,166.75,8.64,190.99,16.98"/>
	<path class="st6" d="M370.29,401.23c27.85-19.29,99.29-32.18,175.68-32.32c74.67-0.13,124.25,11.97,133.67,14.36"/>
	<path class="st4" d="M370.29,514.66c9.36-74.75,17.11-94.78,23.09-94.65c6.14,0.14,9.49,21.5,18.19,21.19
		c8.83-0.31,11.66-22.56,17.49-21.19c10.24,2.41,17.68,74.83,9.8,83.35c-5.71,6.17-14.06-27.11-28.69-26.84
		c-12.81,0.23-23.35,26.07-30.79,50.85"/>
	<path class="st4" d="M679.4,514.55c-9.36-74.75-17.11-94.78-23.09-94.65c-6.14,0.14-9.49,21.5-18.19,21.19
		c-8.83-0.31-11.66-22.56-17.49-21.19c-10.24,2.41-17.68,74.83-9.8,83.35c5.71,6.17,14.06-27.11,28.69-26.84
		c12.81,0.23,23.35,26.07,30.79,50.85"/>
	<rect x="400.5" y="1651.18" width="248.93" height="6.25"/>
	<rect x="400.5" y="1633.45" width="248.93" height="6.25"/>
	<rect x="400.5" y="728.57" width="248.93" height="6.25"/>
	<rect x="370.29" y="615.98" width="309.34" height="6.25"/>
	<rect x="205.72" y="1639.71" width="145.82" height="6.25"/>
	<rect x="697.34" y="1639.71" width="147.9" height="6.25"/>
	<path class="st6" d="M163.05,2501.44c13.23-10.98,38.46-30.49,77.05-52.77c62.53-36.09,118.02-55.12,136.21-61.05"/>
	<path class="st6" d="M179.23,2534.27c16.19-16.35,64.01-45.54,117.48-72c52.27-25.87,89.06-38.8,96.07-41.22"/>
	<path class="st6" d="M887.15,2500.08c-13.23-10.98-38.46-30.49-77.05-52.77c-62.53-36.09-118.02-55.12-136.21-61.05"/>
	<path class="st6" d="M870.97,2532.91c-16.19-16.35-64.01-45.54-117.48-72c-52.27-25.87-89.06-38.8-96.07-41.22"/>
	<polygon class="st7" points="174.5,2896.5 113.81,3135.39 171.28,3135.49 	"/>
	<polygon class="st7" points="878.28,2896.61 938.98,3135.5 881.5,3135.6 	"/>
	<polygon class="st7" points="383.28,2896.61 443.98,3135.5 386.5,3135.6 	"/>
	<polygon class="st7" points="667.72,2896.61 607.02,3135.5 664.5,3135.6 	"/>
</g>
</svg>
