<?xml version="1.0" encoding="UTF-8" standalone="no"?>
<!DOCTYPE svg PUBLIC "-//W3C//DTD SVG 1.1//EN" "http://www.w3.org/Graphics/SVG/1.1/DTD/svg11.dtd">
<!-- Created with Vectornator (http://vectornator.io/) -->
<svg height="100%" stroke-miterlimit="10" style="fill-rule:nonzero;clip-rule:evenodd;stroke-linecap:round;stroke-linejoin:round;" version="1.1" viewBox="0 0 792 1224" width="100%" xml:space="preserve" xmlns="http://www.w3.org/2000/svg" xmlns:vectornator="http://vectornator.io" xmlns:xlink="http://www.w3.org/1999/xlink">
<defs>
<linearGradient gradientTransform="matrix(1 0 0 1 6.90286 8.64346)" gradientUnits="userSpaceOnUse" id="LinearGradient" x1="150.499" x2="728.987" y1="1241.66" y2="-9.15673">
<stop offset="0.716942" stop-color="#5d99f1" stop-opacity="0.441799"/>
<stop offset="1" stop-color="#ab67ff" stop-opacity="0.441799"/>
</linearGradient>
<filter color-interpolation-filters="sRGB" filterUnits="userSpaceOnUse" height="508.166" id="Filter" width="701.325" x="-239.178" y="677.174">
<feGaussianBlur in="SourceGraphic" result="Blur" stdDeviation="23.3527"/>
</filter>
<filter color-interpolation-filters="sRGB" filterUnits="userSpaceOnUse" height="416.955" id="Filter_2" width="712.569" x="144.736" y="666.48">
<feGaussianBlur in="SourceGraphic" result="Blur" stdDeviation="14.0504"/>
</filter>
<filter color-interpolation-filters="sRGB" filterUnits="userSpaceOnUse" height="475.681" id="Filter_3" width="1397.2" x="-311.681" y="921.433">
<feGaussianBlur in="SourceGraphic" result="Blur" stdDeviation="50"/>
</filter>
</defs>
<clipPath id="ArtboardFrame">
<rect height="1224" width="792" x="0" y="0"/>
</clipPath>
<g clip-path="url(#ArtboardFrame)" id="Background" vectornator:layerName="Background">
<path d="M0.750449-10.7256L804.822-10.7256L804.822 1242.26L0.750449 1242.26L0.750449-10.7256Z" fill="url(#LinearGradient)" fill-rule="nonzero" opacity="1" stroke="none"/>
<path d="M-180.797 931.257C-180.797 823.174-49.9379 735.556 111.484 735.556C272.907 735.556 403.765 823.174 403.765 931.257C403.765 1039.34 272.907 1126.96 111.484 1126.96C-49.9379 1126.96-180.797 1039.34-180.797 931.257Z" fill="#35954f" fill-rule="nonzero" filter="url(#Filter)" opacity="0.568721" stroke="none"/>
<path d="M179.862 969.934C179.862 872.174 395.054 797.607 595.9 722.878C797.728 647.783 822.179 788.119 822.179 885.879C822.179 983.64 807.65 1046.33 593.352 1046.33C379.055 1046.33 179.862 1067.69 179.862 969.934Z" fill="#46967a" fill-rule="nonzero" filter="url(#Filter_2)" opacity="1" stroke="none"/>
</g>
<g id="Layer-5" vectornator:layerName="Layer 5"/>
<g clip-path="url(#ArtboardFrame)" id="Layer-1" vectornator:layerName="Layer 1">
<path d="M-0.123033 1007.44L792.075 1007.44L792.075 1230.55L-0.123033 1230.55L-0.123033 1007.44Z" fill="#8f8f8f" fill-rule="nonzero" opacity="0.49031" stroke="none"/>
<path d="M-186.681 1046.43L960.516 1046.43L960.516 1272.11L-186.681 1272.11L-186.681 1046.43Z" fill="#8f8f8f" fill-rule="nonzero" filter="url(#Filter_3)" opacity="0.98062" stroke="none"/>
</g>
<g clip-path="url(#ArtboardFrame)" id="Layer-2" vectornator:layerName="Layer 2">
<path d="M238.284 982.232C238.284 906.079 349.278 844.344 486.195 844.344C623.112 844.344 734.106 906.079 734.106 982.232C734.106 1058.39 612.146 1036.96 475.229 1036.96C338.311 1036.96 238.284 1058.39 238.284 982.232Z" fill="#69bc90" fill-rule="nonzero" opacity="1" stroke="none"/>
<path d="M531.447 1016.59C531.447 950.318 555.587 1009.69 680.196 944.464C814.243 874.301 816.726 941.632 816.726 1007.9C816.726 1074.17 833.889 1062.62 682.589 1062.62C531.289 1062.62 531.447 1082.86 531.447 1016.59Z" fill="#69bc90" fill-rule="nonzero" opacity="1" stroke="none"/>
<path d="M447.439 915.086C447.439 844.405 535.415 787.107 643.939 787.107C752.463 787.107 832.252 833.21 809.527 906.885C783.997 989.656 759.83 925.168 651.306 925.168C542.782 925.168 447.439 985.767 447.439 915.086Z" fill="#40c87f" fill-rule="nonzero" opacity="1" stroke="none"/>
</g>
<g id="Layer-3" vectornator:layerName="Layer 3">
<path d="M391.959 775.175L401.1 765.866L406.964 821.775L415.484 875.839L402.375 877.382C402.375 877.382 398.078 854.174 397.813 827.187C397.539 799.251 391.959 775.175 391.959 775.175Z" fill="#705c4d" fill-rule="nonzero" opacity="1" stroke="none"/>
<path d="M647.39 886.382L640.042 878.426L627.157 920.164L612.025 960.242L624.122 962.715C624.122 962.715 631.218 945.575 635.03 925.172C638.975 904.052 647.39 886.382 647.39 886.382Z" fill="#705c4d" fill-rule="nonzero" opacity="1" stroke="none"/>
<path d="M429.99 937.63L436.214 930.906L443.207 969.475L452.051 1006.69L442.552 1008.15C442.552 1008.15 438.289 992.194 436.787 973.5C435.232 954.148 429.99 937.63 429.99 937.63Z" fill="#705c4d" fill-rule="nonzero" opacity="1" stroke="none"/>
<path d="M572.922 682.342L583.3 679.712C583.3 679.712 589.287 733.493 587.585 768.733C585.777 806.144 590.023 820.675 590.023 820.675L570.292 820.675L572.922 682.342Z" fill="#705c4d" fill-rule="nonzero" opacity="1" stroke="none"/>
<path d="M512.219 702.985C525.325 683.567 537.195 689.078 557.074 669.696C580.78 646.582 621.629 664.218 621.629 683.943C621.629 703.668 590.998 721.435 562.608 721.435C534.218 721.435 501.185 719.335 512.219 702.985Z" fill="#69bc90" fill-rule="nonzero" opacity="1" stroke="none"/>
<path d="M579.156 667.895C579.156 644.339 628.347 626.677 639.064 645.584C650.787 666.264 669.254 678.917 651.043 696.01C633.867 712.132 632.037 707.353 605.834 707.353C579.631 707.353 579.156 691.451 579.156 667.895Z" fill="#3ba16b" fill-rule="nonzero" opacity="1" stroke="none" vectornator:blendMode="overlay"/>
<path d="M546.546 674.622C546.546 657.471 560.934 646.736 577.617 646.736C594.299 646.736 609.458 647.022 609.458 664.173C609.458 681.324 594.231 675.572 577.549 675.572C560.867 675.572 546.546 691.773 546.546 674.622Z" fill="#69bc90" fill-rule="nonzero" opacity="1" stroke="none" vectornator:blendMode="multiply"/>
<path d="M711.688 755.408C711.688 755.408 724.649 750.919 719.937 757.57C712.268 768.394 715.964 853.18 715.964 853.18L699.801 851.751L711.688 755.408Z" fill="#705c4d" fill-rule="nonzero" opacity="1" stroke="none"/>
<path d="M655.606 760.612C666.088 749.492 662.998 717.738 689.946 728.908C712.026 738.061 733.754 728.96 738.174 740.913C742.594 752.866 718.916 764.829 691.555 774.946C664.195 785.062 645.071 771.788 655.606 760.612Z" fill="#3ca561" fill-rule="nonzero" opacity="1" stroke="none"/>
<path d="M668.416 723.242C668.416 715.058 683.771 708.423 702.711 708.423C721.652 708.423 737.006 715.058 737.006 723.242C737.006 731.426 721.652 738.061 702.711 738.061C683.771 738.061 668.416 731.426 668.416 723.242Z" fill="#69bc90" fill-rule="nonzero" opacity="1" stroke="none"/>
<path d="M691.207 721.527C691.207 702.644 694.261 710.201 717.352 710.201C740.443 710.201 751.964 720.15 759.374 736.98C766.982 754.262 756.109 755.716 733.018 755.716C709.926 755.716 691.207 740.409 691.207 721.527Z" fill="#5fd4bb" fill-rule="nonzero" opacity="1" stroke="none" vectornator:blendMode="multiply"/>
<path d="M335.775 797.234C334.597 782.722 366.348 773.233 388.525 766.621C410.703 760.009 414.909 758.778 416.088 773.29C417.266 787.803 400.242 804.928 378.065 811.54C355.887 818.152 336.953 811.747 335.775 797.234Z" fill="#4da770" fill-rule="nonzero" opacity="1" stroke="none"/>
<path d="M363.805 770.677C363.805 754.636 381.266 741.632 402.805 741.632C424.344 741.632 441.805 754.636 441.805 770.677C441.805 786.718 424.344 799.722 402.805 799.722C381.266 799.722 363.805 786.718 363.805 770.677Z" fill="#4d705b" fill-rule="nonzero" opacity="1" stroke="none"/>
<path d="M674.401 885.78C676.519 873.637 661.852 862.055 641.642 859.911C621.431 857.767 603.33 865.873 601.212 878.016C599.094 890.159 613.761 901.741 633.972 903.885C654.182 906.029 672.283 897.923 674.401 885.78Z" fill="#4d705b" fill-rule="nonzero" opacity="1" stroke="none"/>
<path d="M409.211 935.355C408.433 924.238 420.554 914.704 436.284 914.06C452.014 913.416 465.396 921.905 466.174 933.022C466.952 944.139 454.831 953.673 439.101 954.317C423.371 954.962 409.988 946.472 409.211 935.355Z" fill="#4d705b" fill-rule="nonzero" opacity="1" stroke="none"/>
<path d="M340.35 764.132C340.35 745.228 357.201 729.904 377.987 729.904C398.773 729.904 415.623 745.228 415.623 764.132C415.623 783.035 398.773 798.359 377.987 798.359C357.201 798.359 340.35 783.035 340.35 764.132Z" fill="#4da770" fill-rule="nonzero" opacity="1" stroke="none" vectornator:blendMode="darken"/>
<path d="M697.274 883.159C699.769 868.85 685.982 855.573 666.478 853.504C646.974 851.435 629.139 861.358 626.643 875.667C624.147 889.977 637.935 903.254 657.439 905.323C676.943 907.392 694.778 897.469 697.274 883.159Z" fill="#4da770" fill-rule="nonzero" opacity="1" stroke="none" vectornator:blendMode="darken"/>
<path d="M391.764 931.521C390.848 918.421 402.411 907.297 417.591 906.675C432.771 906.054 445.819 916.169 446.736 929.269C447.653 942.369 436.09 953.493 420.91 954.115C405.73 954.736 392.681 944.621 391.764 931.521Z" fill="#4da770" fill-rule="nonzero" opacity="1" stroke="none" vectornator:blendMode="darken"/>
</g>
<g id="Layer-4" vectornator:layerName="Layer 4">
<path d="M735.413 833.892C735.916 823.071 748.425 802.352 757.858 817.288C761.116 822.448 774.098 820.117 780.89 827.795C787.681 835.473 787.564 839.932 785.024 848C782.892 854.771 758.735 847.334 758.735 847.334C758.735 847.334 734.911 844.713 735.413 833.892Z" fill="#4c9d6b" fill-rule="nonzero" opacity="1" stroke="none"/>
<path d="M757.66 850.585C758.645 842.555 753.895 825.44 746.715 834.999C744.235 838.302 737.048 834.633 732.241 839.255C727.433 843.877 726.976 847.173 727.486 853.486C727.914 858.785 742.674 856.955 742.674 856.955C742.674 856.955 756.675 858.616 757.66 850.585Z" fill="#6fb366" fill-rule="nonzero" opacity="1" stroke="none"/>
<path d="M636.442 815.039C637.344 807.078 651.178 792.116 660.55 803.351C663.788 807.232 677.48 805.831 684.335 811.654C691.189 817.477 690.912 820.76 687.969 826.642C685.499 831.579 660.429 825.511 660.429 825.511C660.429 825.511 635.539 823 636.442 815.039Z" fill="#4c9d6b" fill-rule="nonzero" opacity="1" stroke="none"/>
<path d="M693.493 958.823C694.395 950.862 708.23 935.901 717.602 947.136C720.839 951.017 734.531 949.616 741.386 955.439C748.241 961.262 747.963 964.545 745.02 970.427C742.55 975.364 717.48 969.296 717.48 969.296C717.48 969.296 692.591 966.784 693.493 958.823Z" fill="#4c9d6b" fill-rule="nonzero" opacity="1" stroke="none"/>
<path d="M668.819 959.974C665.248 946.968 667.694 919.48 680.763 935.163C685.278 940.581 694.858 934.896 703.137 942.523C711.417 950.15 712.961 955.49 713.883 965.671C714.656 974.216 692.505 970.766 692.505 970.766C692.505 970.766 672.39 972.98 668.819 959.974Z" fill="#47795a" fill-rule="nonzero" opacity="1" stroke="none"/>
<path d="M509.149 830.249C509.932 823.26 520.883 808.747 528.092 817.402C530.582 820.392 541.289 817.625 546.585 821.884C551.881 826.143 551.632 829.014 549.276 834.437C547.298 838.988 527.779 836.585 527.779 836.585C527.779 836.585 508.366 837.238 509.149 830.249Z" fill="#4c9d6b" fill-rule="nonzero" opacity="1" stroke="none"/>
<path d="M581.971 893.515C577.351 883.351 555.036 866.539 549.601 882.89C547.723 888.539 531.711 889.302 526.65 898.153C521.589 907.004 523.388 911.214 529.358 918.294C534.369 924.237 559.776 911.633 559.776 911.633C559.776 911.633 586.591 903.679 581.971 893.515Z" fill="#4c9d6b" fill-rule="nonzero" opacity="1" stroke="none"/>
<path d="M486.897 986.362C491.895 973.541 518.036 951.465 525.673 971.33C528.311 978.193 547.864 978.188 554.578 988.816C561.292 999.444 559.362 1004.75 552.528 1013.84C546.793 1021.48 515.06 1007.42 515.06 1007.42C515.06 1007.42 481.9 999.184 486.897 986.362Z" fill="#336747" fill-rule="nonzero" opacity="1" stroke="none"/>
<path d="M308.08 988.347C305.332 974.864 315.337 942.143 332.52 954.699C338.457 959.037 354.887 948.436 366.289 953.729C377.692 959.022 378.943 964.525 378.13 975.872C377.447 985.395 343.159 990.779 343.159 990.779C343.159 990.779 310.829 1001.83 308.08 988.347Z" fill="#538e6a" fill-rule="nonzero" opacity="1" stroke="none"/>
<path d="M322.121 902.766C321.643 891.129 332.449 864.074 343.389 875.949C347.168 880.051 360.134 872.222 367.73 877.523C375.325 882.824 375.614 887.583 373.772 897.154C372.227 905.187 347.024 907.321 347.024 907.321C347.024 907.321 322.599 914.404 322.121 902.766Z" fill="#4c9d6b" fill-rule="nonzero" opacity="1" stroke="none"/>
<path d="M563.231 819.965C562.605 811.68 553.858 794.475 548.1 804.735C546.111 808.28 537.559 805 533.329 810.049C529.098 815.098 529.297 818.502 531.179 824.93C532.759 830.325 548.35 827.477 548.35 827.477C548.35 827.477 563.856 828.251 563.231 819.965Z" fill="#4fbe7a" fill-rule="nonzero" opacity="1" stroke="none"/>
<path d="M498.259 910.149C494.902 897.385 498.093 867.45 511.161 880.249C515.676 884.671 525.676 875.795 534.013 881.451C542.349 887.106 543.807 892.323 544.507 902.87C545.094 911.722 522.376 914.609 522.376 914.609C522.376 914.609 501.616 922.914 498.259 910.149Z" fill="#4fbe7a" fill-rule="nonzero" opacity="1" stroke="none"/>
<path d="M589.908 990.174C593.206 979.088 587.462 953.543 572.336 965.058C567.11 969.036 554.378 961.834 544.573 967.028C534.768 972.221 533.315 976.756 533.118 985.831C532.952 993.448 560.805 994.991 560.805 994.991C560.805 994.991 586.611 1001.26 589.908 990.174Z" fill="#3abc6c" fill-rule="nonzero" opacity="1" stroke="none"/>
<path d="M406.511 901.695C410.104 888.93 406.689 858.996 392.699 871.795C387.866 876.216 377.161 867.341 368.237 872.996C359.313 878.651 357.751 883.869 357.003 894.415C356.375 903.267 380.693 906.155 380.693 906.155C380.693 906.155 402.917 914.459 406.511 901.695Z" fill="#46d67e" fill-rule="nonzero" opacity="1" stroke="none"/>
</g>
</svg>
